<?xml version="1.0" encoding="utf-8"?>
<!-- Generator: Adobe Illustrator 16.0.3, SVG Export Plug-In . SVG Version: 6.00 Build 0)  -->
<!DOCTYPE svg PUBLIC "-//W3C//DTD SVG 1.1//EN" "http://www.w3.org/Graphics/SVG/1.1/DTD/svg11.dtd">
<svg version="1.1" id="Layer_1" xmlns="http://www.w3.org/2000/svg" xmlns:xlink="http://www.w3.org/1999/xlink" x="0px" y="0px"
	 width="60.85px" height="40.626px" viewBox="0 0 60.85 40.626" enable-background="new 0 0 60.85 40.626" xml:space="preserve">
<rect x="-275.896" y="-107.687" display="none" fill="#414042" stroke="#000000" stroke-miterlimit="10" width="511" height="240"/>
<path fill="none" stroke="#FFFFFF" stroke-width="3" stroke-miterlimit="10" d="M58.241,27.762c0.009,1.988-1.595,3.605-3.583,3.614
	l-48.37,0.206c-1.988,0.009-3.607-1.596-3.616-3.584L2.608,12.865C2.6,10.876,4.203,9.258,6.191,9.25l48.371-0.206
	c1.988-0.009,3.606,1.596,3.615,3.584L58.241,27.762z"/>
<g>
	<path fill="none" stroke="#FFFFFF" stroke-miterlimit="10" d="M36.02,22.498l-2.959-6.482c-3.09,5.514-3.153,6.295-4.849,6.312
		c-2.301,0.022-7.271,0.07-7.271,0.07l4.322-4.406l1.82,4.347"/>
	<polyline fill="none" stroke="#FFFFFF" stroke-miterlimit="10" points="33.061,16.016 33.03,12.894 29.539,12.928 	"/>
	<path fill="none" stroke="#FFFFFF" stroke-miterlimit="10" d="M33.057,15.625c0,0,0.41-0.004,0.903-0.009
		c0.493-0.005,0.492-0.087,0.479-1.36l-0.013-1.376"/>
	<polyline fill="none" stroke="#FFFFFF" stroke-miterlimit="10" points="21.09,14.386 23.8,14.359 25.263,17.992 	"/>
	<circle fill="none" stroke="#FFFFFF" stroke-miterlimit="10" cx="20.94" cy="22.398" r="4.684"/>
	<path fill="none" stroke="#FFFFFF" stroke-miterlimit="10" d="M40.657,22.207c0.026,2.587-2.049,4.704-4.635,4.729
		c-2.589,0.025-4.704-2.05-4.729-4.638c-0.026-2.585,2.051-4.703,4.637-4.728C38.517,17.545,40.634,19.622,40.657,22.207z"/>
	<circle fill="none" stroke="#FFFFFF" stroke-miterlimit="10" cx="27.863" cy="22.331" r="0.863"/>
</g>
<circle fill="none" stroke="#FFFFFF" stroke-width="2" stroke-miterlimit="10" cx="8.385" cy="20.544" r="0.5"/>
<polyline fill="none" stroke="#FFFFFF" stroke-width="2" stroke-linecap="round" stroke-linejoin="round" stroke-miterlimit="10" points="
	46.687,14.051 52.187,19.632 46.354,25.379 "/>
</svg>
