<?xml version="1.0" encoding="utf-8"?>
<!-- Generator: Adobe Illustrator 16.0.3, SVG Export Plug-In . SVG Version: 6.00 Build 0)  -->
<!DOCTYPE svg PUBLIC "-//W3C//DTD SVG 1.1//EN" "http://www.w3.org/Graphics/SVG/1.1/DTD/svg11.dtd">
<svg version="1.1" id="Layer_1" xmlns="http://www.w3.org/2000/svg" xmlns:xlink="http://www.w3.org/1999/xlink" x="0px" y="0px"
	 width="60.85px" height="40.626px" viewBox="0 0 60.85 40.626" enable-background="new 0 0 60.85 40.626" xml:space="preserve">
<rect x="-275.896" y="-107.687" display="none" fill="#414042" stroke="#000000" stroke-miterlimit="10" width="511" height="240"/>
<path fill="none" stroke="#FFFFFF" stroke-width="3" stroke-miterlimit="10" d="M54.085,36.729
	c-0.664,1.874-2.721,2.854-4.595,2.189L3.898,22.758c-1.874-0.664-2.854-2.722-2.19-4.596L6.765,3.898
	c0.664-1.874,2.721-2.855,4.595-2.191l45.592,16.161c1.874,0.664,2.854,2.722,2.19,4.596L54.085,36.729z"/>
<g>
	<path fill="none" stroke="#FFFFFF" stroke-miterlimit="10" d="M34.951,24.261l-0.593-7.101c-4.772,4.145-5.096,4.858-6.697,4.301
		c-2.173-0.758-6.867-2.393-6.867-2.393l5.558-2.686l0.243,4.706"/>
	<polyline fill="none" stroke="#FFFFFF" stroke-miterlimit="10" points="34.358,17.16 35.385,14.211 32.088,13.063 	"/>
	<path fill="none" stroke="#FFFFFF" stroke-miterlimit="10" d="M34.486,16.792c0,0,0.388,0.135,0.854,0.297
		c0.466,0.162,0.492,0.084,0.911-1.119l0.453-1.299"/>
	<polyline fill="none" stroke="#FFFFFF" stroke-miterlimit="10" points="23.644,11.579 26.203,12.47 26.352,16.383 	"/>
	<circle fill="none" stroke="#FFFFFF" stroke-miterlimit="10" cx="20.794" cy="19.069" r="4.684"/>
	<circle fill="none" stroke="#FFFFFF" stroke-miterlimit="10" cx="34.993" cy="24.015" r="4.682"/>
	<circle fill="none" stroke="#FFFFFF" stroke-miterlimit="10" cx="27.332" cy="21.346" r="0.863"/>
</g>
<circle fill="none" stroke="#FFFFFF" stroke-width="2" stroke-miterlimit="10" cx="9.604" cy="13.079" r="0.5"/>
<polyline fill="none" stroke="#FFFFFF" stroke-width="2" stroke-linecap="round" stroke-linejoin="round" stroke-miterlimit="10" points="
	47.847,19.918 51.135,27.03 43.702,30.466 "/>
</svg>
